<svg width="512" height="512" viewBox="0 0 512 512" fill="none" xmlns="http://www.w3.org/2000/svg">
<path fill-rule="evenodd" clip-rule="evenodd" d="M312.656 96.5011C289.402 64.7472 250.972 44 207.5 44C136.531 44 79 99.2928 79 167.5C79 173.373 79.4265 179.15 80.2514 184.804C34.9548 190.796 0 229.566 0 276.5C0 327.586 41.4137 369 92.5 369H238.552L168.5 287.34L357 173L264 287.34L336.467 369H419.5C470.586 369 512 327.586 512 276.5C512 232.249 480.926 195.255 439.409 186.148C430.192 134.996 382.029 96 324 96C320.173 96 316.389 96.1696 312.656 96.5011ZM186.954 288.172L339.5 189L247 288.172L319 369L147.775 511.573L256 369L186.954 288.172Z" fill="black"/>
</svg>
