<svg width="512" height="512" viewBox="0 0 512 512" fill="none" xmlns="http://www.w3.org/2000/svg">
<path fill-rule="evenodd" clip-rule="evenodd" d="M324 146C316.997 146 310.217 142.965 305.586 137.712C282.015 110.973 246.82 94 207.5 94C136.531 94 79 149.293 79 217.5V217.5C79 227.052 72.4171 235.679 63.3507 238.687C26.547 250.897 0 285.598 0 326.5C0 377.586 41.4137 419 92.5 419H419.5C470.586 419 512 377.586 512 326.5C512 286.922 487.144 253.15 452.191 239.942C444.634 237.087 438.65 230.901 436.177 223.211C421.817 178.564 377.028 146 324 146V146Z" fill="black"/>
</svg>
