<svg width="512" height="512" viewBox="0 0 512 512" fill="none" xmlns="http://www.w3.org/2000/svg">
<path fill-rule="evenodd" clip-rule="evenodd" d="M312.656 146.501C289.402 114.747 250.972 94 207.5 94C136.531 94 79 149.293 79 217.5C79 223.373 79.4265 229.15 80.2514 234.804C34.9548 240.796 0 279.566 0 326.5C0 377.586 41.4137 419 92.5 419H419.5C470.586 419 512 377.586 512 326.5C512 282.249 480.926 245.255 439.409 236.148C430.192 184.996 382.029 146 324 146C320.173 146 316.389 146.17 312.656 146.501ZM227 183C224.239 183 222 185.239 222 188V263C222 263.711 222.148 264.388 222.416 265H187.362C183.39 265 181.004 269.408 183.176 272.734L252.314 378.59C254.287 381.612 258.713 381.612 260.686 378.59L329.824 272.734C331.996 269.408 329.61 265 325.638 265H290.584C290.852 264.388 291 263.711 291 263V188C291 185.239 288.761 183 286 183H227Z" fill="black"/>
</svg>
