<svg width="512" height="512" viewBox="0 0 512 512" fill="none" xmlns="http://www.w3.org/2000/svg">
<path fill-rule="evenodd" clip-rule="evenodd" d="M312.656 146.501C289.402 114.747 250.972 94 207.5 94C136.531 94 79 149.293 79 217.5C79 223.373 79.4265 229.15 80.2514 234.804C34.9548 240.796 0 279.566 0 326.5C0 377.586 41.4137 419 92.5 419H419.5C470.586 419 512 377.586 512 326.5C512 282.249 480.926 245.255 439.409 236.148C430.192 184.996 382.029 146 324 146C320.173 146 316.389 146.17 312.656 146.501ZM260.686 187.409C258.713 184.388 254.287 184.388 252.314 187.409L183.176 293.266C181.004 296.591 183.39 301 187.362 301H222V376C222 378.761 224.239 381 227 381H286C288.761 381 291 378.761 291 376V301H325.638C329.61 301 331.996 296.591 329.824 293.266L260.686 187.409Z" fill="black"/>
</svg>
