<svg width="512" height="512" viewBox="0 0 512 512" fill="none" xmlns="http://www.w3.org/2000/svg">
<g clip-path="url(#clip0_200_681)">
<path fill-rule="evenodd" clip-rule="evenodd" d="M252.644 298.785C234.956 348.417 187.184 384.143 130.802 384.502C59.0142 384.959 0.453458 327.91 0.00256127 257.08C-0.448305 186.249 57.3813 128.46 129.169 128.003C186.846 127.636 235.985 164.39 253.308 215.588L487.445 214.098L487.446 214.098L487.446 214.099L496.491 231.163L257.822 232.892C258.876 238.546 259.554 244.332 259.829 250.221L505.157 248.494L512 259.698L487.976 297.286L487.976 297.287L487.975 297.287L488.328 352.746L398.207 353.319L397.853 297.861L252.644 298.785ZM194.976 255.838C194.751 220.423 165.471 191.899 129.577 192.127C93.6832 192.356 64.7684 221.251 64.9938 256.666C65.2193 292.081 94.4996 320.605 130.393 320.377C166.287 320.148 195.202 291.254 194.976 255.838Z" fill="black"/>
</g>
<defs>
<clipPath id="clip0_200_681">
<rect width="512" height="512" fill="white"/>
</clipPath>
</defs>
</svg>
