<svg width="512" height="512" viewBox="0 0 512 512" fill="none" xmlns="http://www.w3.org/2000/svg">
<path fill-rule="evenodd" clip-rule="evenodd" d="M253.202 69.5652C249.34 69.5652 246.208 66.4506 246.208 62.6087V6.95652C246.208 3.11455 249.34 0 253.202 0C257.065 0 260.197 3.11455 260.197 6.95652V62.6087C260.197 66.4506 257.065 69.5652 253.202 69.5652ZM149.912 32.4594C147.981 29.132 143.703 27.9919 140.358 29.913C137.012 31.8342 135.866 36.0885 137.798 39.4159L165.775 87.6121C167.706 90.9393 171.983 92.0793 175.329 90.1582C178.674 88.2374 179.82 83.9827 177.889 80.6556L149.912 32.4594ZM327.347 82.668C325.357 85.9609 326.429 90.235 329.739 92.2143C333.051 94.1935 337.348 93.1283 339.338 89.8354L368.162 42.1362C370.151 38.8433 369.083 34.5695 365.77 32.5902C362.46 30.6109 358.163 31.6758 356.174 34.9688L327.347 82.668ZM399.071 122.426C395.442 123.74 393.571 127.732 394.891 131.343C396.212 134.953 400.226 136.814 403.855 135.501L456.435 116.466C460.066 115.152 461.935 111.16 460.614 107.55C459.294 103.94 455.279 102.078 451.651 103.392L399.071 122.426ZM49.9646 107.55C51.2856 103.94 55.2992 102.078 58.9289 103.392L111.508 122.426C115.138 123.74 117.01 127.732 115.689 131.343C114.367 134.953 110.354 136.814 106.724 135.501L54.1446 116.466C50.5149 115.152 48.6432 111.16 49.9646 107.55ZM20.9942 208.696C17.1314 208.696 14 211.81 14 215.652C14 219.494 17.1314 222.609 20.9942 222.609H76.948C80.8107 222.609 83.9422 219.494 83.9422 215.652C83.9422 211.81 80.8107 208.696 76.948 208.696H20.9942ZM27.289 334.845C25.3576 331.517 26.5038 327.263 29.8491 325.343L78.3065 297.517C81.6517 295.597 85.9294 296.735 87.8606 300.063C89.7922 303.391 88.6459 307.645 85.3008 309.565L36.8433 337.391C33.498 339.311 29.2204 338.173 27.289 334.845ZM427.121 308.647C423.775 306.727 419.497 307.865 417.566 311.193C415.636 314.521 416.78 318.776 420.126 320.696L468.585 348.522C471.928 350.442 476.206 349.304 478.139 345.976C480.07 342.648 478.923 338.393 475.579 336.473L427.121 308.647ZM428.058 221.217C428.058 217.375 431.188 214.261 435.052 214.261H491.006C494.869 214.261 498 217.375 498 221.217C498 225.059 494.869 228.174 491.006 228.174H435.052C431.188 228.174 428.058 225.059 428.058 221.217ZM129.396 250.286C132.475 279.405 145.026 306.062 166.126 326.478C179.381 337.709 187.891 351.26 194.2 367.402C200.51 383.544 203.591 400.203 201.445 417.391V456.348C201.445 475.542 214.472 491.712 232.212 496.584C233.489 499.27 235.175 501.724 237.207 503.85C239.674 506.435 242.604 508.483 245.829 509.882C249.054 511.279 252.51 512 256 512C259.49 512 262.946 511.279 266.171 509.882C269.396 508.483 272.325 506.435 274.793 503.85C276.825 501.724 278.51 499.27 279.788 496.584C297.529 491.712 310.555 475.542 310.555 456.348V417.391C308.322 399.9 309.897 381.532 316.424 365.137C322.949 348.744 334.313 333.535 347.977 322.304C366.123 304.659 373.385 286.637 378.343 261.882C383.3 237.128 380.62 211.461 370.655 188.248C360.689 165.035 343.901 145.359 322.495 131.801C312.86 125.7 302.495 120.966 291.694 117.68C267.457 109 244.653 109.556 218.987 117.085C190.752 125.368 166.329 143.229 149.961 167.564C133.593 191.899 126.317 221.169 129.396 250.286ZM289.035 417.391H221.529C223.432 397.891 220.71 378.204 213.561 359.914C206.254 341.223 195.34 324.383 180.275 311.129C163.253 294.202 152.575 271.964 150.054 248.125C147.483 223.812 153.559 199.371 167.226 179.051C180.893 158.731 201.287 143.817 224.863 136.902C247.765 130.183 272.264 131.425 294.331 140.386C300.293 142.879 306.009 145.853 311.338 149.228C329.213 160.549 343.229 176.978 351.552 196.361C359.873 215.744 362.111 237.176 357.97 257.847C353.844 278.464 343.562 297.363 328.471 312.081C313.711 324.911 304.481 339.014 297.109 357.535C289.545 376.543 286.777 397.092 289.035 417.391ZM327.993 266.339C329.82 267.125 331.949 266.29 332.657 264.441C339.662 246.21 340.031 226.07 333.633 207.54C327.238 189.01 314.505 173.346 297.719 163.239C296.015 162.214 293.822 162.857 292.864 164.592C291.907 166.328 292.552 168.499 294.25 169.531C309.464 178.774 321.004 193.026 326.818 209.868C332.631 226.71 332.332 245.006 326.035 261.596C325.332 263.448 326.166 265.554 327.993 266.339Z" fill="black"/>
</svg>
