<svg width="512" height="512" viewBox="0 0 512 512" fill="none" xmlns="http://www.w3.org/2000/svg">
<path fill-rule="evenodd" clip-rule="evenodd" d="M96.8772 177.397C100.786 214.563 116.719 248.59 143.506 274.648C160.334 288.983 171.137 306.279 179.148 326.883C187.159 347.487 191.069 368.751 188.345 390.69V440.414C188.345 464.914 204.882 485.553 227.404 491.772C229.026 495.199 231.166 498.332 233.745 501.045C236.878 504.345 240.597 506.959 244.691 508.745C248.785 510.528 253.172 511.448 257.603 511.448C262.035 511.448 266.422 510.528 270.516 508.745C274.609 506.959 278.329 504.345 281.462 501.045C284.041 498.332 286.181 495.199 287.803 491.772C310.325 485.553 326.862 464.914 326.862 440.414V390.69C324.028 368.364 326.029 344.918 334.313 323.994C342.596 303.069 357.022 283.656 374.369 269.32C397.408 246.8 406.627 223.795 412.921 192.198C419.214 160.601 415.812 127.84 403.16 98.2105C390.507 68.5813 369.196 43.4674 342.021 26.1624C329.79 18.3744 316.63 12.3316 302.918 8.13793C272.148 -2.94074 243.198 -2.23148 210.614 7.37882C174.77 17.9506 143.764 40.7486 122.985 71.8098C102.206 102.871 92.9679 140.231 96.8772 177.397ZM226.795 390.69H213.841C216.258 365.799 212.802 340.67 203.726 317.327C194.45 293.468 180.595 271.972 161.469 255.056C139.859 233.451 126.303 205.066 123.103 174.638C119.839 143.605 127.552 112.409 144.903 86.4724C162.254 60.5359 188.144 41.4998 218.074 32.6722C247.149 24.0968 278.251 25.6822 306.267 37.1194C313.834 40.3018 321.091 44.0975 327.856 48.4057C350.548 62.8556 368.343 83.826 378.908 108.567C389.472 133.307 392.313 160.663 387.058 187.047C381.817 213.363 368.764 237.487 349.606 256.271C330.868 272.647 319.151 290.648 309.793 314.287C300.189 338.549 296.676 364.78 299.542 390.69H285.982L284.254 304.251L321.329 200.087C321.987 198.24 321.022 196.208 319.174 195.55C317.326 194.893 315.294 195.858 314.637 197.706L314.226 198.859L302.603 197.454C301.818 197.359 301.19 196.757 301.063 195.977L296.916 170.534C295.931 164.494 287.206 164.608 286.379 170.671L282.639 198.098C282.358 200.161 279.369 200.14 279.116 198.075L275.249 166.492C274.487 160.269 265.471 160.245 264.676 166.465L260.794 196.874C260.534 198.913 257.594 198.953 257.278 196.922L252.483 166.096C251.537 160.017 242.751 160.113 241.938 166.21L237.536 199.228C237.268 201.236 234.385 201.301 234.027 199.307L228.76 169.958C227.73 164.221 219.559 164.066 218.311 169.759L212.558 196.019C212.394 196.764 211.772 197.322 211.013 197.404L197.424 198.865L197.025 197.723C196.377 195.872 194.35 194.896 192.499 195.544C190.648 196.192 189.672 198.219 190.32 200.07L226.795 304.276V390.69ZM198.629 202.308L211.392 200.936C213.67 200.691 215.537 199.017 216.027 196.779L221.781 170.519C222.197 168.621 224.921 168.673 225.264 170.585L230.532 199.934C231.606 205.918 240.253 205.723 241.056 199.697L245.458 166.68C245.729 164.647 248.658 164.616 248.973 166.642L253.769 197.468C254.717 203.563 263.537 203.442 264.318 197.324L268.2 166.915C268.464 164.842 271.47 164.849 271.724 166.924L275.591 198.506C276.35 204.703 285.314 204.765 286.158 198.579L289.898 171.151C290.174 169.13 293.082 169.092 293.41 171.105L297.558 196.548C297.939 198.889 299.822 200.695 302.177 200.98L313.005 202.289L277.344 302.482L277.126 303.094L277.139 303.743L278.878 390.69H233.899V303.672V303.069L233.699 302.499L198.629 202.308ZM348.999 197.887C351.319 198.889 354.021 197.824 354.922 195.464C363.812 172.193 364.283 146.487 356.162 122.835C348.04 99.1837 331.876 79.1896 310.565 66.2897C308.404 64.9813 305.618 65.8014 304.403 68.0166C303.189 70.2322 304.007 73.0032 306.163 74.3202C325.478 86.1187 340.127 104.31 347.509 125.807C354.891 147.304 354.508 170.656 346.515 191.832C345.623 194.196 346.68 196.885 348.999 197.887Z" fill="black"/>
</svg>
