<svg width="512" height="512" viewBox="0 0 512 512" fill="none" xmlns="http://www.w3.org/2000/svg">
<path fill-rule="evenodd" clip-rule="evenodd" d="M253.202 69.9454C249.34 69.9454 246.208 66.8138 246.208 62.9508V6.99454C246.208 3.13157 249.34 0 253.202 0C257.065 0 260.197 3.13157 260.197 6.99454V62.9508C260.197 66.8138 257.065 69.9454 253.202 69.9454ZM149.912 32.6368C147.981 29.2912 143.703 28.1449 140.358 30.0765C137.012 32.0081 135.866 36.2857 137.798 39.6313L165.775 88.0909C167.706 91.4362 171.983 92.5825 175.329 90.6509C178.674 88.7195 179.82 84.4417 177.889 81.0963L149.912 32.6368ZM327.347 83.1197C325.357 86.4306 326.429 90.7281 329.739 92.7182C333.051 94.7082 337.348 93.6372 339.338 90.3263L368.162 42.3665C370.151 39.0555 369.083 34.7584 365.77 32.7683C362.46 30.7782 358.163 31.8489 356.174 35.1599L327.347 83.1197ZM399.071 123.095C395.442 124.417 393.571 128.43 394.891 132.06C396.212 135.69 400.226 137.562 403.855 136.241L456.435 117.103C460.066 115.781 461.935 111.768 460.614 108.138C459.294 104.508 455.279 102.636 451.651 103.957L399.071 123.095ZM49.9646 108.138C51.2856 104.508 55.2992 102.636 58.9289 103.957L111.508 123.095C115.138 124.417 117.01 128.43 115.689 132.06C114.367 135.69 110.354 137.562 106.724 136.241L54.1446 117.103C50.5149 115.781 48.6432 111.768 49.9646 108.138ZM20.9942 209.836C17.1314 209.836 14 212.968 14 216.831C14 220.694 17.1314 223.825 20.9942 223.825H76.948C80.8107 223.825 83.9422 220.694 83.9422 216.831C83.9422 212.968 80.8107 209.836 76.948 209.836H20.9942ZM27.289 336.675C25.3576 333.329 26.5038 329.051 29.8491 327.12L78.3065 299.142C81.6517 297.212 85.9294 298.356 87.8606 301.702C89.7922 305.048 88.6459 309.326 85.3008 311.257L36.8433 339.235C33.498 341.165 29.2204 340.021 27.289 336.675ZM427.121 310.334C423.775 308.403 419.497 309.547 417.566 312.894C415.636 316.24 416.78 320.518 420.126 322.448L468.585 350.426C471.928 352.357 476.206 351.212 478.139 347.866C480.07 344.52 478.923 340.242 475.579 338.312L427.121 310.334ZM428.058 222.426C428.058 218.563 431.188 215.432 435.052 215.432H491.006C494.869 215.432 498 218.563 498 222.426C498 226.289 494.869 229.421 491.006 229.421H435.052C431.188 229.421 428.058 226.289 428.058 222.426ZM166.126 325.464C145.026 304.937 132.475 278.133 129.396 248.856C126.317 219.58 133.593 190.15 149.961 165.682C166.329 141.214 190.752 123.255 218.987 114.927C244.653 107.357 267.457 106.798 291.694 115.525C302.495 118.829 312.863 123.589 322.495 129.724C343.901 143.356 360.689 163.139 370.655 186.478C380.62 209.818 383.3 235.626 378.343 260.516C373.385 285.405 366.123 303.526 347.977 321.267C334.313 332.559 322.949 347.852 316.424 364.334C309.897 380.819 308.322 399.287 310.555 416.874V456.044C310.555 475.343 297.529 491.601 279.788 496.5C278.51 499.2 276.825 501.668 274.793 503.805C272.326 506.404 269.396 508.464 266.171 509.871C262.946 511.275 259.49 512 256 512C252.51 512 249.054 511.275 245.829 509.871C242.604 508.464 239.674 506.404 237.207 503.805C235.175 501.668 233.49 499.2 232.212 496.5C214.472 491.601 201.445 475.343 201.445 456.044V416.874C203.591 399.592 200.511 382.842 194.2 366.612C187.891 350.381 179.381 336.756 166.126 325.464ZM221.529 416.874H231.732V348.803L203.001 266.717C202.491 265.258 203.259 263.662 204.717 263.152C206.176 262.641 207.772 263.41 208.282 264.868L208.597 265.767L219.3 264.617C219.899 264.552 220.389 264.113 220.517 263.525L225.05 242.839C226.032 238.355 232.469 238.478 233.28 242.996L237.429 266.115C237.711 267.687 239.982 267.636 240.192 266.053L243.66 240.044C244.301 235.241 251.222 235.166 251.967 239.954L255.744 264.237C255.993 265.837 258.308 265.805 258.513 264.199L261.571 240.245C262.197 235.345 269.299 235.364 269.899 240.266L272.946 265.145C273.145 266.772 275.499 266.788 275.72 265.164L278.666 243.558C279.318 238.782 286.191 238.692 286.966 243.45L290.233 263.492C290.333 264.107 290.828 264.581 291.446 264.656L300.601 265.763L300.925 264.854C301.443 263.399 303.043 262.638 304.498 263.157C305.956 263.675 306.714 265.275 306.196 266.73L276.992 348.784L278.354 416.874H289.035C286.777 396.464 289.545 375.802 297.109 356.691C304.481 338.068 313.711 323.889 328.471 310.988C343.562 296.191 353.844 277.188 357.97 256.458C362.111 235.675 359.873 214.125 351.552 194.636C343.229 175.147 329.213 158.628 311.338 147.246C306.009 143.852 300.293 140.862 294.331 138.355C272.264 129.345 247.765 128.097 224.863 134.852C201.287 141.806 180.893 156.801 167.226 177.232C153.559 197.663 147.483 222.237 150.054 246.683C152.575 270.652 163.253 293.012 180.275 310.031C195.34 323.357 206.254 340.29 213.561 359.083C220.71 377.473 223.432 397.267 221.529 416.874ZM219.6 267.399L209.546 268.479L237.17 347.405L237.328 347.852V348.328V416.874H272.758L271.388 348.384L271.377 347.872L271.549 347.391L299.641 268.465L291.11 267.434C289.256 267.209 287.772 265.786 287.472 263.942L284.205 243.9C283.946 242.314 281.655 242.344 281.438 243.936L278.492 265.542C277.828 270.415 270.766 270.366 270.169 265.485L267.122 240.607C266.922 238.972 264.555 238.966 264.347 240.599L261.289 264.553C260.674 269.373 253.726 269.468 252.979 264.667L249.202 240.384C248.954 238.788 246.647 238.813 246.433 240.414L242.966 266.423C242.333 271.17 235.521 271.323 234.675 266.61L230.526 243.49C230.256 241.984 228.11 241.943 227.783 243.438L223.25 264.124C222.864 265.887 221.394 267.206 219.6 267.399ZM332.657 263.089C331.949 264.947 329.82 265.786 327.993 264.997C326.166 264.208 325.332 262.089 326.035 260.227C332.332 243.547 332.631 225.151 326.818 208.217C321.004 191.283 309.464 176.953 294.25 167.659C292.552 166.622 291.907 164.439 292.864 162.694C293.822 160.949 296.015 160.303 297.719 161.333C314.505 171.495 327.238 187.245 333.633 205.876C340.031 224.508 339.662 244.757 332.657 263.089Z" fill="black"/>
</svg>
