<svg width="512" height="512" viewBox="0 0 512 512" fill="none" xmlns="http://www.w3.org/2000/svg">
<path fill-rule="evenodd" clip-rule="evenodd" d="M143.623 274.407C116.77 248.372 100.798 214.374 96.8793 177.241C92.9605 140.108 102.221 102.781 123.051 71.7469C143.881 40.7129 174.963 17.9349 210.895 7.37235C243.56 -2.22952 272.58 -2.93816 303.426 8.13079C317.171 12.3208 330.364 18.3583 342.624 26.1394C369.867 43.4293 391.23 68.5212 403.913 98.1244C416.597 127.728 420.008 160.46 413.698 192.03C407.39 223.599 398.147 246.583 375.052 269.084C357.662 283.408 343.201 302.803 334.897 323.71C326.594 344.616 324.587 368.041 327.429 390.347V440.028C327.429 464.506 310.85 485.127 288.274 491.341C286.648 494.765 284.502 497.895 281.917 500.606C278.777 503.903 275.048 506.515 270.944 508.3C266.84 510.081 262.442 511 258 511C253.558 511 249.16 510.081 245.056 508.3C240.952 506.515 237.223 503.903 234.083 500.606C231.498 497.895 229.352 494.765 227.726 491.341C205.15 485.127 188.571 464.506 188.571 440.028V390.347C191.303 368.427 187.382 347.182 179.352 326.596C171.321 306.011 160.492 288.73 143.623 274.407ZM214.13 390.347H300.041C297.168 364.46 300.69 338.252 310.318 314.012C319.699 290.393 331.444 272.408 350.228 256.046C369.433 237.279 382.518 213.176 387.772 186.883C393.04 160.522 390.192 133.19 379.602 108.471C369.011 83.7525 351.172 62.8005 328.425 48.3633C321.643 44.0589 314.368 40.2665 306.783 37.0869C278.698 25.6597 247.52 24.0757 218.374 32.6435C188.37 41.4634 162.416 60.4829 145.023 86.3966C127.63 112.31 119.897 143.479 123.17 174.485C126.378 204.886 139.966 233.246 161.63 254.833C180.802 271.734 194.691 293.211 203.99 317.049C213.089 340.372 216.553 365.479 214.13 390.347ZM355.558 195.293C354.654 197.651 351.945 198.715 349.62 197.713C347.295 196.712 346.236 194.026 347.13 191.664C355.142 170.507 355.526 147.174 348.126 125.696C340.726 104.218 326.041 86.0432 306.679 74.255C304.517 72.9392 303.697 70.1706 304.915 67.957C306.132 65.7437 308.925 64.9243 311.092 66.2316C332.455 79.1202 348.658 99.0967 356.8 122.728C364.942 146.359 364.47 172.042 355.558 195.293Z" fill="black"/>
</svg>
