<svg width="512" height="512" viewBox="0 0 512 512" fill="none" xmlns="http://www.w3.org/2000/svg">
<path fill-rule="evenodd" clip-rule="evenodd" d="M317.858 276.101C338.101 247.549 350 212.664 350 175C350 78.3502 271.65 0 175 0C78.3502 0 0 78.3502 0 175C0 271.65 78.3502 350 175 350C211.589 350 245.556 338.771 273.641 319.571L458.434 502.384C470.605 514.425 490.233 514.319 502.274 502.148C514.315 489.977 514.209 470.349 502.038 458.308L317.858 276.101ZM175 297.5C107.345 297.5 52.5 242.655 52.5 175C52.5 107.345 107.345 52.5 175 52.5C242.655 52.5 297.5 107.345 297.5 175C297.5 242.655 242.655 297.5 175 297.5Z" fill="black"/>
</svg>
