<svg width="512" height="512" viewBox="0 0 512 512" fill="none" xmlns="http://www.w3.org/2000/svg">
<path fill-rule="evenodd" clip-rule="evenodd" d="M366.052 311.512C387.489 279.652 400 241.287 400 200C400 89.5431 310.457 0 200 0C89.5431 0 0 89.5431 0 200C0 310.457 89.5431 400 200 400C240.286 400 277.79 388.089 309.183 367.596C310.528 369.494 312.057 371.301 313.767 372.994L442.194 500.045C458.082 515.762 483.703 515.624 499.421 499.737C515.138 483.849 515 458.228 499.112 442.51L370.686 315.459C369.219 314.008 367.669 312.692 366.052 311.512ZM200 340C122.68 340 60 277.32 60 200C60 122.68 122.68 60 200 60C277.32 60 340 122.68 340 200C340 277.32 277.32 340 200 340Z" fill="black"/>
</svg>
